HIERARCHY
ROOT mixamorig:Hips
{
	OFFSET 0.00 0.00 0.00
	CHANNELS 6 Xposition Yposition Zposition Zrotation Yrotation Xrotation
	JOINT mixamorig:Spine
	{
		OFFSET	0.0003	0.2415	-0.0410
		CHANNELS 3 Zrotation Yrotation Xrotation
		JOINT mixamorig:Spine1
		{
			OFFSET	0.0004	0.2818	-0.0478
			CHANNELS 3 Zrotation Yrotation Xrotation
			JOINT mixamorig:Spine2
			{
				OFFSET	0.0004	0.3221	-0.0546
				CHANNELS 3 Zrotation Yrotation Xrotation
				JOINT mixamorig:Neck
				{
					OFFSET	0.0005	0.3623	-0.0615
					CHANNELS 3 Zrotation Yrotation Xrotation
					JOINT mixamorig:Head
					{
						OFFSET	-0.0000	0.1864	0.1103
						CHANNELS 3 Zrotation Yrotation Xrotation
						End Site
						{
							OFFSET -0.0000 0.5772 0.3415
						}
					}
				}
				JOINT mixamorig:LeftShoulder
				{
					OFFSET	0.1295	0.3230	-0.0603
					CHANNELS 3 Zrotation Yrotation Xrotation
					JOINT mixamorig:LeftArm
					{
						OFFSET	0.2582	-0.0787	0.0024
						CHANNELS 3 Zrotation Yrotation Xrotation
						JOINT mixamorig:LeftForeArm
						{
							OFFSET	0.6271	-0.0701	-0.0210
							CHANNELS 3 Zrotation Yrotation Xrotation
							JOINT mixamorig:LeftHand
							{
								OFFSET	0.6288	0.0238	0.0536
								CHANNELS 3 Zrotation Yrotation Xrotation
								JOINT mixamorig:LeftHandThumb1
								{
									OFFSET	0.0931	-0.0440	0.0895
									CHANNELS 3 Zrotation Yrotation Xrotation
									JOINT mixamorig:LeftHandThumb2
									{
										OFFSET	0.0745	-0.0352	0.0716
										CHANNELS 3 Zrotation Yrotation Xrotation
										JOINT mixamorig:LeftHandThumb3
										{
											OFFSET	0.0778	-0.0596	0.0620
											CHANNELS 3 Zrotation Yrotation Xrotation
											End Site
											{
												OFFSET 0.0771 -0.0385 0.0386
											}
										}
									}
								}
								JOINT mixamorig:LeftHandIndex1
								{
									OFFSET	0.3516	-0.0207	0.1009
									CHANNELS 3 Zrotation Yrotation Xrotation
									JOINT mixamorig:LeftHandIndex2
									{
										OFFSET	0.0948	-0.0163	0.0282
										CHANNELS 3 Zrotation Yrotation Xrotation
										JOINT mixamorig:LeftHandIndex3
										{
											OFFSET	0.0878	-0.0139	0.0260
											CHANNELS 3 Zrotation Yrotation Xrotation
											End Site
											{
												OFFSET 0.0739 -0.0077 0.0213
											}
										}
									}
								}
								JOINT mixamorig:LeftHandMiddle1
								{
									OFFSET	0.3575	-0.0240	0.0201
									CHANNELS 3 Zrotation Yrotation Xrotation
									JOINT mixamorig:LeftHandMiddle2
									{
										OFFSET	0.1107	-0.0143	-0.0005
										CHANNELS 3 Zrotation Yrotation Xrotation
										JOINT mixamorig:LeftHandMiddle3
										{
											OFFSET	0.1079	-0.0180	-0.0001
											CHANNELS 3 Zrotation Yrotation Xrotation
											End Site
											{
												OFFSET 0.0905 -0.0079 -0.0008
											}
										}
									}
								}
								JOINT mixamorig:LeftHandRing1
								{
									OFFSET	0.3511	-0.0400	-0.0653
									CHANNELS 3 Zrotation Yrotation Xrotation
									JOINT mixamorig:LeftHandRing2
									{
										OFFSET	0.1022	-0.0112	-0.0130
										CHANNELS 3 Zrotation Yrotation Xrotation
										JOINT mixamorig:LeftHandRing3
										{
											OFFSET	0.0951	-0.0175	-0.0114
											CHANNELS 3 Zrotation Yrotation Xrotation
											End Site
											{
												OFFSET 0.0785 -0.0192 -0.0091
											}
										}
									}
								}
								JOINT mixamorig:LeftHandPinky1
								{
									OFFSET	0.3203	-0.0471	-0.1282
									CHANNELS 3 Zrotation Yrotation Xrotation
									JOINT mixamorig:LeftHandPinky2
									{
										OFFSET	0.0919	-0.0139	-0.0358
										CHANNELS 3 Zrotation Yrotation Xrotation
										JOINT mixamorig:LeftHandPinky3
										{
											OFFSET	0.0739	-0.0184	-0.0285
											CHANNELS 3 Zrotation Yrotation Xrotation
											End Site
											{
												OFFSET 0.0643 -0.0134 -0.0250
											}
										}
									}
								}
							}
						}
					}
				}
				JOINT mixamorig:RightShoulder
				{
					OFFSET	-0.1288	0.3230	-0.0627
					CHANNELS 3 Zrotation Yrotation Xrotation
					JOINT mixamorig:RightArm
					{
						OFFSET	-0.2586	-0.0787	-0.0024
						CHANNELS 3 Zrotation Yrotation Xrotation
						JOINT mixamorig:RightForeArm
						{
							OFFSET	-0.6271	-0.0701	-0.0089
							CHANNELS 3 Zrotation Yrotation Xrotation
							JOINT mixamorig:RightHand
							{
								OFFSET	-0.6287	0.0238	0.0323
								CHANNELS 3 Zrotation Yrotation Xrotation
								JOINT mixamorig:RightHandThumb1
								{
									OFFSET	-0.0898	-0.0401	0.0951
									CHANNELS 3 Zrotation Yrotation Xrotation
									JOINT mixamorig:RightHandThumb2
									{
										OFFSET	-0.0718	-0.0320	0.0762
										CHANNELS 3 Zrotation Yrotation Xrotation
										JOINT mixamorig:RightHandThumb3
										{
											OFFSET	-0.0785	-0.0616	0.0649
											CHANNELS 3 Zrotation Yrotation Xrotation
											End Site
											{
												OFFSET -0.0817 -0.0391 0.0433
											}
										}
									}
								}
								JOINT mixamorig:RightHandIndex1
								{
									OFFSET	-0.3495	-0.0148	0.1166
									CHANNELS 3 Zrotation Yrotation Xrotation
									JOINT mixamorig:RightHandIndex2
									{
										OFFSET	-0.0952	-0.0168	0.0285
										CHANNELS 3 Zrotation Yrotation Xrotation
										JOINT mixamorig:RightHandIndex3
										{
											OFFSET	-0.0882	-0.0149	0.0263
											CHANNELS 3 Zrotation Yrotation Xrotation
											End Site
											{
												OFFSET -0.0747 -0.0063 0.0215
											}
										}
									}
								}
								JOINT mixamorig:RightHandMiddle1
								{
									OFFSET	-0.3492	-0.0159	0.0347
									CHANNELS 3 Zrotation Yrotation Xrotation
									JOINT mixamorig:RightHandMiddle2
									{
										OFFSET	-0.1142	-0.0154	0.0020
										CHANNELS 3 Zrotation Yrotation Xrotation
										JOINT mixamorig:RightHandMiddle3
										{
											OFFSET	-0.1083	-0.0173	0.0022
											CHANNELS 3 Zrotation Yrotation Xrotation
											End Site
											{
												OFFSET -0.0948 -0.0113 0.0015
											}
										}
									}
								}
								JOINT mixamorig:RightHandRing1
								{
									OFFSET	-0.3414	-0.0305	-0.0460
									CHANNELS 3 Zrotation Yrotation Xrotation
									JOINT mixamorig:RightHandRing2
									{
										OFFSET	-0.1039	-0.0127	-0.0154
										CHANNELS 3 Zrotation Yrotation Xrotation
										JOINT mixamorig:RightHandRing3
										{
											OFFSET	-0.0986	-0.0151	-0.0145
											CHANNELS 3 Zrotation Yrotation Xrotation
											End Site
											{
												OFFSET -0.0812 -0.0187 -0.0115
											}
										}
									}
								}
								JOINT mixamorig:RightHandPinky1
								{
									OFFSET	-0.3134	-0.0352	-0.1095
									CHANNELS 3 Zrotation Yrotation Xrotation
									JOINT mixamorig:RightHandPinky2
									{
										OFFSET	-0.0934	-0.0162	-0.0366
										CHANNELS 3 Zrotation Yrotation Xrotation
										JOINT mixamorig:RightHandPinky3
										{
											OFFSET	-0.0748	-0.0184	-0.0291
											CHANNELS 3 Zrotation Yrotation Xrotation
											End Site
											{
												OFFSET -0.0668 -0.0139 -0.0261
											}
										}
									}
								}
							}
						}
					}
				}
			}
		}
	}
	JOINT mixamorig:LeftUpLeg
	{
		OFFSET	0.2065	-0.1342	0.0157
		CHANNELS 3 Zrotation Yrotation Xrotation
		JOINT mixamorig:LeftLeg
		{
			OFFSET	0.0364	-1.2864	-0.0094
			CHANNELS 3 Zrotation Yrotation Xrotation
			JOINT mixamorig:LeftFoot
			{
				OFFSET	0.0134	-1.2138	-0.0974
				CHANNELS 3 Zrotation Yrotation Xrotation
				JOINT mixamorig:LeftToeBase
				{
					OFFSET	-0.0035	-0.3019	0.3296
					CHANNELS 3 Zrotation Yrotation Xrotation
					End Site
					{
						OFFSET -0.0253 -0.0000 0.1929
					}
				}
			}
		}
	}
	JOINT mixamorig:RightUpLeg
	{
		OFFSET	-0.2041	-0.1342	0.0153
		CHANNELS 3 Zrotation Yrotation Xrotation
		JOINT mixamorig:RightLeg
		{
			OFFSET	-0.0364	-1.2865	0.0237
			CHANNELS 3 Zrotation Yrotation Xrotation
			JOINT mixamorig:RightFoot
			{
				OFFSET	-0.0134	-1.2138	-0.1333
				CHANNELS 3 Zrotation Yrotation Xrotation
				JOINT mixamorig:RightToeBase
				{
					OFFSET	0.0035	-0.3019	0.3388
					CHANNELS 3 Zrotation Yrotation Xrotation
					End Site
					{
						OFFSET 0.0252 -0.0000 0.1929
					}
				}
			}
		}
	}
}
MOTION
Frames: 4
Frame Time: 0.0333333
-0.0248 2.7215 -0.0159 2.5552 -43.7374 -5.9068 -0.6498 0.5428 5.9283 -0.1416 0.7172 11.8576 -0.1416 0.7172 11.8576 -5.7952 -18.3080 6.9885 9.6111 -32.8810 -13.4714 -6.4185 -3.4750 1.3052 -53.8398 -4.7086 -13.8961 -14.3114 -44.7069 5.1711 28.6600 -2.8446 2.4395 -1.5494 19.5246 19.9860 8.1699 3.9195 -4.3601 -8.4750 -9.3561 0.2469 -27.8850 6.3582 10.3548 -47.7928 -1.6018 15.3189 -0.0000 -0.0000 -0.0000 -46.0930 0.8196 2.7547 -51.8319 -9.9744 5.6593 0.0000 0.0000 -0.0000 -58.8324 -10.8498 -2.8967 -66.0788 -10.0297 -3.2513 7.3634 0.5755 1.0441 -61.9981 -31.7568 -1.2377 -64.0266 -15.0575 -15.1783 -0.0000 -0.0000 -0.0000 7.4206 8.4415 2.9210 62.3170 -12.3583 -19.0110 11.8798 52.3713 1.2341 -22.2285 1.3729 5.3589 14.0430 -20.9275 12.3935 -10.1718 -11.7997 0.9956 9.6351 9.1571 1.3842 36.5584 -12.6351 10.5707 58.0830 -2.1409 18.0506 4.8240 0.5284 1.3620 37.4311 8.3114 4.9043 84.9146 5.3467 6.9746 -0.0000 -0.0000 -0.0000 47.0643 20.9522 3.7367 89.6200 14.9281 -3.4526 -5.9040 -0.3451 0.9425 45.3173 38.1936 -0.6480 87.7238 25.1861 -15.6324 0.0000 0.0000 -0.0000 6.1273 9.6043 -24.3604 -4.5876 -10.1702 35.3427 -8.1212 -0.5471 -7.1127 0.7966 -3.0702 -2.7416 -14.6088 -15.3156 1.3613 5.7980 18.4200 30.7185 3.4327 0.6791 -25.5270 0.7205 -1.3470 -0.9458 
-0.0251 2.7243 -0.0153 2.8172 -46.3022 -6.0968 -0.6401 0.1801 5.9914 -0.1334 -0.0107 11.9838 -0.1334 -0.0108 11.9838 -5.8995 -17.9058 6.4643 10.3119 -33.0888 -13.6027 -6.4578 -4.1608 1.2879 -54.1212 -3.5726 -14.2382 -14.2780 -45.4439 5.0764 28.6501 -3.1436 2.2543 -1.4291 19.5636 19.7315 8.0900 4.0468 -4.3795 -8.4750 -9.3561 0.2469 -26.5857 5.9043 9.8669 -46.1717 -1.6810 14.8018 -0.0000 0.0000 0.0000 -44.7009 1.0806 2.6453 -50.1290 -9.8717 5.3860 0.0000 0.0000 -0.0000 -57.6559 -10.3885 -2.9120 -64.4719 -9.7783 -3.3153 7.3634 0.5755 1.0441 -60.5706 -30.7534 -1.4291 -62.5125 -14.5944 -15.0299 -0.0000 0.0000 -0.0000 7.4445 7.5317 2.9253 62.2970 -12.5522 -18.7484 12.2131 52.9021 1.7642 -23.0442 1.4240 5.2866 14.0627 -20.9940 12.4778 -10.1878 -11.7792 1.0224 9.6351 9.1571 1.3842 37.5363 -12.6563 11.2025 58.6974 -2.2347 18.2173 4.8240 0.5284 1.3620 38.2297 8.3258 5.0458 85.8701 5.3402 7.0846 0.0000 -0.0000 0.0000 47.9177 20.9752 3.8134 90.5847 15.0766 -3.3559 -5.9040 -0.3450 0.9425 46.0546 38.1928 -0.6343 88.3697 25.4033 -15.5992 0.0000 0.0000 -0.0000 6.6534 10.2653 -23.5400 -3.6826 -8.6626 34.8643 -8.6255 -0.5591 -7.2602 0.7725 -3.0350 -2.7104 -14.5870 -15.4161 0.2488 5.9527 19.2269 31.1007 3.6239 0.8039 -25.1161 0.5495 -1.0308 -0.8991 
-0.0253 2.7269 -0.0149 3.1549 -48.8557 -6.3518 -0.6442 -0.1789 6.0389 -0.1426 -0.7274 12.0794 -0.1426 -0.7274 12.0795 -6.0929 -17.3862 5.8791 10.9022 -33.2232 -13.6245 -6.4809 -4.7818 1.2717 -54.2939 -2.4504 -14.6016 -14.1360 -46.1480 4.8098 28.5223 -2.9471 2.2564 -1.3502 19.5047 19.4425 7.9961 4.1976 -4.3722 -8.4750 -9.3561 0.2469 -25.0862 5.4747 9.2856 -44.3311 -1.7531 14.2126 -0.0000 -0.0000 -0.0000 -43.0788 1.3641 2.5396 -48.2337 -9.7481 5.0856 0.0000 0.0000 -0.0000 -56.2088 -9.8876 -2.8888 -62.6609 -9.4927 -3.3790 7.3634 0.5755 1.0441 -58.8733 -29.6531 -1.6181 -60.7780 -14.0681 -14.8446 -0.0000 -0.0000 -0.0000 7.3974 6.8032 2.9265 62.3302 -13.0040 -18.6300 12.4487 53.4392 2.1797 -23.8622 1.4937 5.1610 14.0699 -20.9763 12.7726 -10.2363 -11.8382 0.9870 9.6351 9.1571 1.3842 38.4199 -12.7253 11.8747 59.2692 -2.3238 18.3716 4.8240 0.5284 1.3620 38.9342 8.3236 5.1630 86.7879 5.3322 7.1901 -0.0000 0.0000 -0.0000 48.6024 20.9919 3.8726 91.4660 15.2106 -3.2657 -5.9040 -0.3451 0.9425 46.7202 38.1946 -0.6209 89.3709 25.7150 -15.5218 -0.0000 0.0000 0.0000 7.1184 10.8513 -22.7036 -2.7680 -7.0982 34.4306 -9.1322 -0.5699 -7.3847 0.7463 -2.9996 -2.6918 -14.4967 -15.4581 -0.9194 6.0163 19.8679 31.5208 3.8884 0.9325 -24.7036 0.3462 -0.8207 -0.9086 
-0.0255 2.7292 -0.0141 3.5819 -51.3835 -6.6858 -0.6644 -0.5000 6.0801 -0.1699 -1.3647 12.1631 -0.1699 -1.3647 12.1630 -6.2611 -16.9180 5.2660 11.4268 -33.3417 -13.6028 -6.4948 -5.4397 1.2536 -54.3351 -1.4159 -14.9351 -13.9787 -46.8107 4.4878 28.5668 -2.5442 2.2284 -1.2931 19.4325 19.1466 7.9015 4.3453 -4.3521 -8.4750 -9.3561 0.2469 -23.4940 5.0829 8.6565 -42.4150 -1.8082 13.5972 -0.0000 0.0000 0.0000 -41.3470 1.6557 2.4406 -46.2435 -9.6079 4.7746 0.0000 -0.0000 -0.0000 -54.6758 -9.3853 -2.8284 -60.7516 -9.1894 -3.4362 7.3634 0.5755 1.0441 -57.0799 -28.5255 -1.7810 -58.9532 -13.5199 -14.6323 -0.0000 -0.0000 0.0000 7.4388 5.9414 2.9303 62.2707 -13.4689 -18.5595 12.6613 53.9754 2.5117 -24.5815 1.5777 4.9906 14.0792 -21.0330 12.8830 -10.2485 -11.8438 1.0162 9.6351 9.1571 1.3842 39.3018 -12.7972 12.5742 59.8252 -2.4119 18.5209 4.8240 0.5284 1.3620 39.6302 8.3237 5.2809 87.6936 5.3226 7.2941 -0.0000 0.0000 -0.0000 49.3167 21.0074 3.9350 92.3669 15.3460 -3.1711 -5.9040 -0.3450 0.9425 47.4331 38.2329 -0.5905 90.3214 26.0103 -15.4411 -0.0000 0.0000 -0.0000 7.5410 11.3871 -21.8476 -1.8650 -5.5112 34.0110 -9.6561 -0.5783 -7.4843 0.7151 -2.9569 -2.6684 -14.3992 -15.4855 -2.1069 6.0382 20.4341 31.9562 4.1607 1.0556 -24.2687 0.1415 -0.6465 -0.9329 
